<svg width="60" height="31" viewBox="0 0 60 31" fill="none" xmlns="http://www.w3.org/2000/svg">
<path d="M35.4056 8.2C35.4056 7.7 35.9056 7.4 36.5056 7.4C36.7056 7.4 36.9056 7.4 37.2056 7.5H37.4056V8.1L37.2056 8C37.0056 7.9 36.7056 7.8 36.4056 7.8C36.0056 7.8 36.0056 8 36.0056 8C36.0056 8 36.3056 8.3 36.6056 8.5C36.9056 8.7 37.5056 8.9 37.5056 9.3C37.5056 9.7 37.0056 10.1 36.2056 10.1C35.9056 10.1 35.7056 10.1 35.4056 10H35.5056V9.5L35.6056 9.6C35.9056 9.7 36.1056 9.8 36.4056 9.8C36.7056 9.8 36.8056 9.8 36.9056 9.7C36.9056 9.7 37.0056 9.6 37.0056 9.5C37.0056 9.3 36.7056 9.1 36.3056 9C35.9056 8.9 35.4056 8.7 35.4056 8.2ZM58.4056 16L58.7056 16.4H58.5056L58.2056 16H58.0056V16.4H57.8056V15.5H58.2056C58.4056 15.5 58.5056 15.6 58.5056 15.8C58.6056 15.9 58.5056 16 58.4056 16ZM58.5056 15.7C58.5056 15.6 58.4056 15.6 58.3056 15.6H58.1056V15.9H58.2056C58.3056 15.9 58.4056 15.9 58.5056 15.7ZM20.7056 10.2H20.0056C20.0056 9.9 20.0056 9.1 20.0056 8.8C20.0056 8.5 20.0056 7.8 20.0056 7.6H21.2056C21.8056 7.6 22.4056 7.7 22.4056 8.4C22.4056 9.1 21.9056 9.2 20.9056 9.2H20.7056C20.7056 9.5 20.7056 10 20.7056 10.2ZM20.7056 8.4C20.7056 8.5 20.7056 8.7 20.7056 8.7H20.9056C21.3056 8.7 21.7056 8.6 21.7056 8.2C21.7056 8.1 21.7056 8 21.6056 8C21.4056 7.8 21.2056 7.7 20.9056 7.8H20.7056C20.7056 8.1 20.7056 8.2 20.7056 8.4ZM33.0056 10.2H32.3056C32.4056 10 33.3056 8 33.5056 7.6H34.0056L35.2056 10.3H34.5056C34.5056 10.2 34.4056 10 34.3056 9.7H33.3056C33.1056 9.8 33.0056 10 33.0056 10.2ZM33.3056 9.2H34.1056C33.9056 8.8 33.8056 8.4 33.7056 8.3C33.5056 8.6 33.4056 8.9 33.3056 9.2ZM59.0056 15.9C59.0056 16.3 58.7056 16.7 58.2056 16.7C57.8056 16.7 57.4056 16.4 57.4056 15.9C57.4056 15.5 57.7056 15.1 58.2056 15.1C58.7056 15.2 59.0056 15.5 59.0056 15.9ZM58.9056 15.9C58.9056 15.5 58.7056 15.2 58.3056 15.2C57.9056 15.2 57.6056 15.4 57.6056 15.8C57.6056 15.9 57.6056 15.9 57.6056 16C57.6056 16.4 57.8056 16.7 58.2056 16.7C58.6056 16.7 58.9056 16.5 58.9056 16.1C58.9056 16 58.9056 16 58.9056 15.9ZM29.0056 10.2C29.0056 9.9 29.0056 9.1 29.0056 8.8C29.0056 8.5 29.0056 7.8 29.0056 7.6H28.3056C28.3056 7.9 28.3056 8.6 28.3056 8.8C28.3056 9 28.3056 9.8 28.3056 10.2H29.0056V10.2ZM30.9056 10.2H29.7056C29.7056 9.9 29.7056 9.1 29.7056 8.8C29.7056 8.5 29.7056 7.8 29.7056 7.6H31.1056C31.6056 7.6 32.1056 7.8 32.1056 8.2C32.1056 8.5 31.9056 8.7 31.5056 8.8C32.0056 8.9 32.2056 9.2 32.2056 9.5C32.2056 10 31.5056 10.2 30.9056 10.2ZM30.7056 9.8C31.2056 9.8 31.5056 9.6 31.5056 9.4C31.5056 9.3 31.5056 9.2 31.4056 9.2C31.2056 9 31.0056 8.9 30.7056 9H30.6056L30.7056 8.6C30.9056 8.6 31.1056 8.6 31.2056 8.4C31.2056 8.3 31.3056 8.3 31.3056 8.2C31.3056 7.9 31.1056 7.8 30.6056 7.8H30.4056C30.4056 8.2 30.4056 8.6 30.4056 8.7C30.4056 8.8 30.4056 9.4 30.4056 9.8H30.7056ZM56.9056 15.1H52.9056L49.8056 18.7L46.8056 15.1H42.7056L47.0056 20.2C46.8056 20.5 41.9056 26 41.9056 26H46.2056C46.2056 26 49.5056 22.3 49.8056 21.9L53.4056 26H57.7056L52.6056 20.2L56.9056 15.1ZM0.905554 26H4.20555V15.2H0.905554V26ZM26.1056 10.2C26.1056 9.9 26.1056 9.1 26.1056 8.8C26.1056 8.5 26.1056 8.2 26.1056 7.9H26.3056C26.6056 7.9 26.8056 7.9 27.0056 8.1C27.1056 8.2 27.1056 8.3 27.1056 8.3C27.1056 8.6 26.8056 8.8 26.6056 8.8H26.4056V8.9C26.7056 9.3 27.0056 9.8 27.2056 10.3H28.0056L27.1056 9C27.5056 8.9 27.7056 8.6 27.7056 8.3C27.7056 7.7 27.0056 7.5 26.5056 7.5H25.3056C25.3056 7.8 25.3056 8.5 25.3056 8.7C25.3056 8.9 25.3056 9.7 25.3056 10.1L26.1056 10.2ZM15.7056 21.9L12.3056 15.2H6.90555V26H9.80555V18H10.6056L14.5056 26H17.0056L20.9056 18H21.7056V26H24.6056V15.2H19.2056L15.7056 21.9ZM36.0056 15.2L41.4056 26H37.9056C37.9056 26 37.1056 24.3 36.9056 24.1H29.8056L28.8056 26H25.5056L31.0056 15.2H36.0056ZM36.0056 21.9C35.7056 21.4 33.9056 17.7 33.8056 17.5H33.3056C33.2056 17.7 31.3056 21.4 31.1056 21.9H36.0056ZM11.3056 10.2H10.1056C10.1056 9.9 10.1056 9.1 10.1056 8.8C10.1056 8.5 10.1056 7.8 10.1056 7.6H11.5056C12.0056 7.6 12.5056 7.8 12.5056 8.2C12.5056 8.5 12.3056 8.7 11.9056 8.8C12.4056 8.9 12.6056 9.2 12.6056 9.5C12.6056 10 12.0056 10.2 11.3056 10.2ZM11.1056 9.9C11.6056 9.9 11.9056 9.7 11.9056 9.5C11.9056 9.4 11.9056 9.3 11.8056 9.3C11.6056 9.1 11.4056 9 11.1056 9.1H11.0056L11.1056 8.7C11.3056 8.7 11.5056 8.7 11.6056 8.5C11.6056 8.4 11.7056 8.4 11.7056 8.3C11.7056 8 11.5056 7.9 11.0056 7.9H10.7056C10.7056 8.3 10.7056 8.7 10.7056 8.8C10.7056 8.9 10.7056 9.5 10.7056 9.9H11.1056ZM16.9056 10.2H16.2056C16.2056 9.9 16.2056 9.1 16.2056 8.8C16.2056 8.5 16.2056 7.8 16.2056 7.6H17.4056C18.0056 7.6 18.6056 7.7 18.6056 8.4C18.6056 9.1 18.1056 9.2 17.1056 9.2H16.9056C16.9056 9.5 16.9056 10 16.9056 10.2ZM16.9056 8.4V8.7H17.1056C17.5056 8.7 17.9056 8.6 17.9056 8.2C17.9056 8.1 17.9056 8 17.8056 8C17.6056 7.8 17.4056 7.7 17.1056 7.8H16.9056C16.9056 8.1 16.9056 8.3 16.9056 8.4ZM13.8056 10.2C13.8056 9.6 13.8056 8.9 13.8056 8.3C13.8056 8.4 13.9056 8.5 13.9056 8.6C13.9056 8.6 15.0056 10.2 15.0056 10.3H15.5056C15.5056 10 15.5056 9.2 15.5056 8.9C15.5056 8.6 15.5056 7.9 15.5056 7.7H14.9056V8.4C14.9056 8.7 14.9056 9.1 14.9056 9.4C14.8056 9.3 14.7056 9.1 14.6056 9C14.6056 9 14.0056 8 13.7056 7.7H13.0056C13.0056 8 13.0056 8.7 13.0056 8.9C13.0056 9.1 13.0056 9.9 13.0056 10.3L13.8056 10.2ZM23.9056 7.5L25.1056 10.2H24.4056L24.2056 9.6H23.1056C23.0056 9.8 22.9056 10 22.9056 10.2H22.3056C22.4056 9.9 23.3056 8 23.5056 7.6L23.9056 7.5ZM24.0056 9.2C23.8056 8.8 23.7056 8.4 23.6056 8.3L23.2056 9.2H24.0056ZM8.20555 12.7H0.505554V5H8.20555V12.7ZM2.30555 11.1C2.50555 11.1 2.80555 11.2 3.00555 11.2C2.80555 11.1 2.50555 11 2.30555 10.8C2.40555 10.6 2.50555 10.4 2.60555 10.3L2.00555 10.4C1.90555 10.1 1.80555 9.8 1.70555 9.5C1.70555 9.8 1.70555 10.2 1.70555 10.5C1.50555 10.5 1.40555 10.6 1.30555 10.6C1.50555 10.7 1.70555 10.9 1.90555 10.9C2.00555 11.1 2.20555 11.4 2.30555 11.5C2.30555 11.4 2.20555 11.2 2.30555 11.1ZM3.30555 8.2C3.40555 8.2 3.50555 8.2 3.60555 8.2C4.00555 8.2 4.40555 8.2 4.80555 8.3C4.40555 8 4.00555 7.9 3.50555 7.8C3.60555 7.7 3.60555 7.5 3.70555 7.4C3.50555 7.5 3.20555 7.6 3.00555 7.8C3.00555 7.8 2.80555 7.8 2.60555 7.8C2.30555 7.8 2.10555 7.9 1.80555 7.9C2.10555 7.9 2.30555 8 2.60555 8.1C2.20555 8.4 2.00555 8.8 1.80555 9.2C2.10555 8.9 2.40555 8.6 2.80555 8.4C2.80555 8.4 3.00555 8.9 3.10555 9.2C3.10555 8.8 3.20555 8.5 3.30555 8.2ZM4.50555 11.2C4.70555 11 4.90555 10.9 5.10555 10.7C4.90555 10.8 4.70555 10.9 4.50555 11C4.50555 10.9 4.50555 10.8 4.50555 10.7C4.40555 10.9 4.30555 11 4.10555 11.1C3.90555 11.2 3.70555 11.2 3.50555 11.2C3.60555 11.3 3.80555 11.3 3.90555 11.3C3.80555 11.5 3.60555 11.6 3.50555 11.7C3.80555 11.6 4.00555 11.5 4.30555 11.4C4.40555 11.4 4.50555 11.4 4.60555 11.4C4.50555 11.3 4.50555 11.3 4.50555 11.2ZM7.30555 6.4C7.10555 6.4 6.90555 6.4 6.70555 6.5C6.10555 6.1 5.50555 5.9 4.80555 5.9C5.20555 6.1 5.60555 6.3 5.90555 6.6C5.40555 6.7 4.80555 6.9 4.30555 7.1C4.80555 7 5.40555 6.9 5.90555 6.9C5.80555 7.2 5.60555 7.4 5.30555 7.6C5.90555 7.3 6.00555 7.3 6.50555 7C6.70555 7.4 6.80555 7.9 6.70555 8.4C6.90555 7.9 7.00555 7.3 7.00555 6.7C7.10555 6.6 7.30555 6.5 7.30555 6.4Z" fill="white"/>
</svg>
